<svg width="25" height="25" viewBox="0 0 25 25" fill="none" xmlns="http://www.w3.org/2000/svg">
<path d="M16.5461 6.43485C16.5461 6.70004 16.4407 6.95435 16.2531 7.14185L11.6671 11.7278C11.4846 11.918 11.3827 12.1713 11.3827 12.4348C11.3827 12.6984 11.4846 12.9517 11.6671 13.1418L16.2531 17.7278C16.4353 17.9164 16.5361 18.1691 16.5338 18.4312C16.5315 18.6934 16.4264 18.9443 16.241 19.1297C16.0555 19.3151 15.8047 19.4202 15.5425 19.4225C15.2803 19.4248 15.0277 19.324 14.8391 19.1418L10.2531 14.5558C9.70766 13.9842 9.40332 13.2245 9.40332 12.4343C9.40332 11.6442 9.70766 10.8845 10.2531 10.3128L14.8391 5.72784C14.979 5.58804 15.1571 5.49283 15.3511 5.45426C15.5451 5.41569 15.7461 5.4355 15.9288 5.51117C16.1115 5.58684 16.2676 5.71498 16.3775 5.87939C16.4874 6.0438 16.5461 6.23709 16.5461 6.43485Z" fill="#1A1B22"/>
</svg>
