<svg width="20" height="20" viewBox="0 0 20 20" fill="none" xmlns="http://www.w3.org/2000/svg">
<path d="M7.26059 3.99958C7.10436 4.15599 7.0166 4.3681 7.0166 4.58927C7.0166 4.81044 7.10436 5.02255 7.26059 5.17896L11.0823 9.00405C11.2343 9.16263 11.3193 9.37393 11.3193 9.59374C11.3193 9.81355 11.2343 10.0248 11.0823 10.1834L7.26059 14.0085C7.10879 14.1658 7.0248 14.3765 7.0267 14.5952C7.02859 14.8139 7.11623 15.0231 7.27074 15.1777C7.42525 15.3324 7.63426 15.4201 7.85276 15.422C8.07125 15.4239 8.28176 15.3398 8.43892 15.1879L12.2606 11.3637C12.4928 11.1313 12.677 10.8554 12.8026 10.5518C12.9283 10.2482 12.993 9.92279 12.993 9.59416C12.993 9.26552 12.9283 8.94011 12.8026 8.63649C12.677 8.33288 12.4928 8.05702 12.2606 7.82466L8.43892 3.99958C8.28265 3.84321 8.07073 3.75537 7.84976 3.75537C7.62879 3.75537 7.41686 3.84321 7.26059 3.99958Z" fill="#1D6BF3"/>
</svg>
