<svg width="14" height="14" viewBox="0 0 14 14" fill="none" xmlns="http://www.w3.org/2000/svg">
<path fill-rule="evenodd" clip-rule="evenodd" d="M3.66527 6.82217L4.28446 3.72621C4.54335 2.43176 5.67992 1.5 7 1.5C8.32008 1.5 9.45665 2.43176 9.71554 3.72621L10.3347 6.82217C10.5196 7.74635 10.9738 8.59514 11.6403 9.26158L11.8341 9.45537C11.9403 9.56163 12 9.70574 12 9.85601C12 10.1198 11.8179 10.3488 11.5608 10.4081L10.7396 10.5976C8.27887 11.1655 5.72113 11.1655 3.26039 10.5976L2.43918 10.4081C2.18211 10.3488 2 10.1198 2 9.85601C2 9.70574 2.05969 9.56163 2.16595 9.45537L2.35974 9.26158C3.02618 8.59514 3.48044 7.74635 3.66527 6.82217ZM2.1944 6.528L2.81359 3.43203C3.21271 1.43645 4.9649 0 7 0C9.0351 0 10.7873 1.43645 11.1864 3.43203L11.8056 6.528C11.9324 7.16179 12.2439 7.74389 12.7009 8.20092L12.8947 8.39471C13.2823 8.78227 13.5 9.30791 13.5 9.85601C13.5 10.8183 12.8358 11.6533 11.8981 11.8697L11.0769 12.0592C10.376 12.2209 9.6679 12.3404 8.95635 12.4176C8.76432 13.3218 7.96137 14.0001 7 14.0001C6.03863 14.0001 5.23568 13.3218 5.04365 12.4176C4.3321 12.3404 3.62399 12.2209 2.9231 12.0592L2.10189 11.8697C1.16422 11.6533 0.5 10.8183 0.5 9.85601C0.5 9.30791 0.717729 8.78227 1.10529 8.39471L1.29908 8.20092C1.75612 7.74388 2.06764 7.16179 2.1944 6.528Z" fill="black"/>
</svg>
