<svg width="24" height="24" viewBox="0 0 24 24" fill="none" xmlns="http://www.w3.org/2000/svg">
<g id="icon/check_mini">
<path id="Vector" d="M9.33306 15.9198L5.41406 12.0008C5.22653 11.8133 4.97223 11.708 4.70706 11.708C4.4419 11.708 4.18759 11.8133 4.00006 12.0008C3.81259 12.1883 3.70728 12.4426 3.70728 12.7078C3.70728 12.973 3.81259 13.2273 4.00006 13.4148L7.91906 17.3338C8.10479 17.5196 8.3253 17.667 8.56801 17.7675C8.81071 17.8681 9.07085 17.9199 9.33356 17.9199C9.59627 17.9199 9.85641 17.8681 10.0991 17.7675C10.3418 17.667 10.5623 17.5196 10.7481 17.3338L20.0001 8.08179C20.1875 7.89426 20.2928 7.63995 20.2928 7.37479C20.2928 7.10962 20.1875 6.85531 20.0001 6.66779C19.8125 6.48032 19.5582 6.375 19.2931 6.375C19.0279 6.375 18.7736 6.48032 18.5861 6.66779L9.33306 15.9198Z" fill="#5A9BFF"/>
</g>
</svg>
