<svg width="20" height="20" viewBox="0 0 20 20" fill="none" xmlns="http://www.w3.org/2000/svg">
<g id="circle-check">
<path id="icon" fill-rule="evenodd" clip-rule="evenodd" d="M16.875 10C16.875 13.797 13.797 16.875 10 16.875C6.20304 16.875 3.125 13.797 3.125 10C3.125 6.20304 6.20304 3.125 10 3.125C13.797 3.125 16.875 6.20304 16.875 10ZM18.75 10C18.75 14.8325 14.8325 18.75 10 18.75C5.16751 18.75 1.25 14.8325 1.25 10C1.25 5.16751 5.16751 1.25 10 1.25C14.8325 1.25 18.75 5.16751 18.75 10ZM13.875 8.0625C14.1857 7.64828 14.1017 7.06066 13.6875 6.75C13.2733 6.43934 12.6857 6.52328 12.375 6.9375L9.27357 11.0727L7.53791 9.33709C7.17179 8.97097 6.5782 8.97097 6.21209 9.33709C5.84597 9.7032 5.84597 10.2968 6.21209 10.6629L8.71209 13.1629C8.90426 13.3551 9.17037 13.4544 9.44146 13.4351C9.71255 13.4159 9.96194 13.2799 10.125 13.0625L13.875 8.0625Z" fill="black"/>
</g>
</svg>
