<svg width="20" height="20" viewBox="0 0 20 20" fill="none" xmlns="http://www.w3.org/2000/svg">
<g id="envelope-open">
<path id="icon" fill-rule="evenodd" clip-rule="evenodd" d="M17.5 8.12256V14.3748C17.5 15.4104 16.6605 16.2498 15.625 16.2498H4.375C3.33947 16.2498 2.5 15.4104 2.5 14.3748V8.12256C2.5 8.09757 2.5005 8.07265 2.50148 8.04781L7.9375 12.1248C9.15972 13.0415 10.8403 13.0415 12.0625 12.1248L17.4985 8.04781C17.4995 8.07265 17.5 8.09757 17.5 8.12256ZM16.4922 6.45883L10.9244 3.30377C10.351 2.97882 9.64903 2.97882 9.0756 3.30377L3.50784 6.45883L9.0625 10.6248C9.61806 11.0415 10.3819 11.0415 10.9375 10.6248L16.4922 6.45883ZM0.625 8.12256C0.625 6.77202 1.35121 5.52581 2.5262 4.85998L8.1512 1.67247C9.29807 1.02259 10.7019 1.02259 11.8488 1.67248L17.4738 4.85998C18.6488 5.52581 19.375 6.77202 19.375 8.12256V14.3748C19.375 16.4459 17.6961 18.1248 15.625 18.1248H4.375C2.30393 18.1248 0.625 16.4459 0.625 14.3748V8.12256Z" fill="#797981"/>
</g>
</svg>
