<svg width="20" height="20" viewBox="0 0 20 20" fill="none" xmlns="http://www.w3.org/2000/svg">
<path fill-rule="evenodd" clip-rule="evenodd" d="M15.625 15.7724C16.0086 15.4291 16.25 14.9301 16.25 14.3748V8.72134C16.25 8.13921 15.9796 7.5901 15.5182 7.23517L11.1432 3.86979C10.4692 3.35135 9.53076 3.35135 8.85679 3.86979L4.48179 7.23517C4.42412 7.27954 4.36942 7.32694 4.31787 7.37706C3.95701 7.72789 3.75 8.21198 3.75 8.72134V14.3748C3.75 14.9301 3.99141 15.4291 4.375 15.7724C4.70475 16.0675 5.13958 16.2477 5.61645 16.2498C5.6193 16.2498 5.62215 16.2498 5.625 16.2498L6.25 16.2498V11.8748C6.25 10.4941 7.36929 9.37482 8.75 9.37482H11.25C12.6307 9.37482 13.75 10.4941 13.75 11.8748V16.2498H14.375C14.3779 16.2498 14.3807 16.2498 14.3835 16.2498C14.8604 16.2477 15.2952 16.0675 15.625 15.7724ZM18.125 14.3748C18.125 16.4459 16.4461 18.1248 14.375 18.1248H5.625C3.55393 18.1248 1.875 16.4459 1.875 14.3748V8.72134C1.875 7.55708 2.41577 6.45886 3.33858 5.749L7.71358 2.38362C9.06153 1.34674 10.9385 1.34674 12.2864 2.38362L16.6614 5.749C16.7768 5.83773 16.8862 5.93253 16.9893 6.03277C17.711 6.73445 18.125 7.70262 18.125 8.72134V14.3748ZM11.875 11.8748C11.875 11.5296 11.5952 11.2498 11.25 11.2498H8.75C8.40482 11.2498 8.125 11.5296 8.125 11.8748V16.2498H11.875V11.8748Z" fill="black"/>
</svg>
