<svg width="44" height="44" viewBox="0 0 44 44" fill="none" xmlns="http://www.w3.org/2000/svg">
<path d="M22.5184 15.3081C23.0139 14.7496 23.6163 14.2961 24.2901 13.9744C24.9638 13.6526 25.6952 13.4692 26.4411 13.4348C27.1869 13.4005 27.9321 13.516 28.6325 13.7745C29.333 14.033 29.9746 14.4292 30.5193 14.9398C31.064 15.4504 31.5009 16.065 31.8042 16.7473C32.1074 17.4296 32.2708 18.1657 32.2848 18.9122C32.2987 19.6587 32.1629 20.4005 31.8854 21.0936C31.6079 21.7867 31.1942 22.4172 30.6689 22.9478L22.4575 31.2381C22.3977 31.2985 22.3266 31.3464 22.2482 31.3792C22.1698 31.4119 22.0856 31.4287 22.0007 31.4287C21.9157 31.4287 21.8316 31.4119 21.7531 31.3792C21.6747 31.3464 21.6036 31.2985 21.5438 31.2381L13.3324 22.9478C12.3364 21.9423 11.7591 20.5961 11.7173 19.1814C11.6754 17.7667 12.1721 16.3888 13.1069 15.3261C15.3252 12.8035 19.2527 12.795 21.4829 15.3081L22.0007 15.891L22.5184 15.3081Z" fill="#1D6BF3"/>
</svg>
