<svg width="20" height="20" viewBox="0 0 20 20" fill="none" xmlns="http://www.w3.org/2000/svg">
<g clip-path="url(#clip0_439_429)">
<path d="M1.66667 11.6668C2.58714 11.6668 3.33333 10.9206 3.33333 10.0002C3.33333 9.07969 2.58714 8.3335 1.66667 8.3335C0.746192 8.3335 0 9.07969 0 10.0002C0 10.9206 0.746192 11.6668 1.66667 11.6668Z" fill="#797981"/>
<path d="M9.99967 11.6668C10.9201 11.6668 11.6663 10.9206 11.6663 10.0002C11.6663 9.07969 10.9201 8.3335 9.99967 8.3335C9.0792 8.3335 8.33301 9.07969 8.33301 10.0002C8.33301 10.9206 9.0792 11.6668 9.99967 11.6668Z" fill="#797981"/>
<path d="M18.3337 11.6668C19.2541 11.6668 20.0003 10.9206 20.0003 10.0002C20.0003 9.07969 19.2541 8.3335 18.3337 8.3335C17.4132 8.3335 16.667 9.07969 16.667 10.0002C16.667 10.9206 17.4132 11.6668 18.3337 11.6668Z" fill="#797981"/>
</g>
<defs>
<clipPath id="clip0_439_429">
<rect width="20" height="20" fill="white"/>
</clipPath>
</defs>
</svg>
