<svg width="20" height="20" viewBox="0 0 20 20" fill="none" xmlns="http://www.w3.org/2000/svg">
<g id="logo-telegram">
<path id="icon" fill-rule="evenodd" clip-rule="evenodd" d="M6.56793 10.6515L12.0111 7.32505C12.4529 7.05506 13.03 7.19434 13.3 7.63614C13.5699 8.07794 13.4307 8.65496 12.9889 8.92495L8.23298 11.8313L12.2127 15.811C12.4937 16.0921 12.875 16.25 13.2725 16.25C13.9004 16.25 14.4618 15.8586 14.6789 15.2693L18.0444 6.13439C18.0977 5.98967 18.125 5.83665 18.125 5.68241C18.125 4.96035 17.5396 4.375 16.8176 4.375H16.688C16.5619 4.375 16.4363 4.39161 16.3145 4.42441L2.52859 8.13599C2.14297 8.23981 1.875 8.58947 1.875 8.98882C1.875 9.40982 2.17216 9.7723 2.58499 9.85487L6.56793 10.6515ZM2.21727 11.6935L6.25 12.5L10.8868 17.1368C11.5195 17.7695 12.3777 18.125 13.2725 18.125C14.686 18.125 15.9496 17.2439 16.4383 15.9175L19.8038 6.78259C19.9336 6.43031 20 6.05784 20 5.68241C20 3.92482 18.5752 2.5 16.8176 2.5H16.688C16.3973 2.5 16.1078 2.53829 15.827 2.61388L2.04114 6.32546C0.836871 6.64969 0 7.74167 0 8.98882C0 10.3036 0.928023 11.4356 2.21727 11.6935Z" fill="#797981"/>
</g>
</svg>
