<svg width="20" height="20" viewBox="0 0 20 20" fill="none" xmlns="http://www.w3.org/2000/svg">
<g id="persons">
<path id="icon" fill-rule="evenodd" clip-rule="evenodd" d="M6.875 7.5C7.91053 7.5 8.75 6.66053 8.75 5.625C8.75 4.58947 7.91053 3.75 6.875 3.75C5.83946 3.75 5 4.58947 5 5.625C5 6.66053 5.83946 7.5 6.875 7.5ZM6.875 9.375C8.94607 9.375 10.625 7.69607 10.625 5.625C10.625 3.55393 8.94607 1.875 6.875 1.875C4.80393 1.875 3.125 3.55393 3.125 5.625C3.125 7.69607 4.80393 9.375 6.875 9.375ZM3.08906 12.9823C2.11779 13.6569 1.875 14.3106 1.875 14.6154C1.875 15.173 2.32702 15.625 2.88462 15.625H10.8654C11.423 15.625 11.875 15.173 11.875 14.6154C11.875 14.3106 11.6322 13.6569 10.6609 12.9823C9.74061 12.3432 8.39786 11.875 6.875 11.875C5.35214 11.875 4.00938 12.3432 3.08906 12.9823ZM0 14.6154C0 12.3077 3.09375 10 6.875 10C8.35111 10 9.72245 10.3517 10.8459 10.9177C11.8127 10.3572 13.0416 10 14.375 10C17.4688 10 20 11.9231 20 13.8462C20 15.1738 18.9238 16.25 17.5962 16.25H13.2425C12.7223 17.005 11.8516 17.5 10.8654 17.5H2.88462C1.29149 17.5 0 16.2085 0 14.6154ZM13.7389 14.375H17.5962C17.8882 14.375 18.125 14.1382 18.125 13.8462C18.125 13.7179 18.0048 13.2561 17.2649 12.7327C16.5718 12.2425 15.5463 11.875 14.375 11.875C13.7286 11.875 13.1265 11.9869 12.6002 12.1697C13.2579 12.8377 13.6678 13.6018 13.7389 14.375ZM15.625 6.25C15.625 6.94035 15.0654 7.5 14.375 7.5C13.6846 7.5 13.125 6.94035 13.125 6.25C13.125 5.55964 13.6846 5 14.375 5C15.0654 5 15.625 5.55964 15.625 6.25ZM17.5 6.25C17.5 7.97589 16.1009 9.375 14.375 9.375C12.6491 9.375 11.25 7.97589 11.25 6.25C11.25 4.52411 12.6491 3.125 14.375 3.125C16.1009 3.125 17.5 4.52411 17.5 6.25Z" fill="black"/>
</g>
</svg>
