<svg width="16" height="16" viewBox="0 0 16 16" fill="none" xmlns="http://www.w3.org/2000/svg">
<path fill-rule="evenodd" clip-rule="evenodd" d="M9.19464 4.99912L9.54557 5.87301L10.4851 5.93671L13.6827 6.15352L11.2232 8.2084L10.5006 8.8122L10.7303 9.72545L11.5122 12.8335L8.79791 11.1294L8.00034 10.6287L7.20278 11.1294L4.48847 12.8335L5.27037 9.72545L5.50012 8.8122L4.77745 8.2084L2.31802 6.15352L5.51556 5.93671L6.45512 5.87301L6.80605 4.99912L8.00034 2.02507L9.19464 4.99912ZM1.47119 4.7075L5.41409 4.44015L6.88678 0.772841C7.28986 -0.230923 8.71083 -0.23092 9.11391 0.772843L10.5866 4.44015L14.5295 4.7075C15.6087 4.78067 16.0478 6.13209 15.2177 6.82563L12.185 9.3595L13.1492 13.192C13.413 14.241 12.2635 15.0762 11.3474 14.5011L8.00034 12.3998L4.65333 14.5011C3.73723 15.0762 2.58764 14.241 2.85154 13.192L3.8157 9.3595L0.782965 6.82563C-0.0471114 6.13209 0.391994 4.78067 1.47119 4.7075Z" fill="#797981"/>
</svg>
