<svg width="16" height="16" viewBox="0 0 16 16" fill="none" xmlns="http://www.w3.org/2000/svg">
<path fill-rule="evenodd" clip-rule="evenodd" d="M3.52044 4.90579L4.02305 2.57791C4.22184 1.65721 5.03609 1 5.978 1H10.0222C10.9641 1 11.7783 1.65724 11.9771 2.57795L12.4797 4.90575C12.4864 4.9369 12.4914 4.96836 12.4948 5H14C14.5523 5 15 5.44772 15 6C15 6.55228 14.5523 7 14 7H2C1.44772 7 1 6.55228 1 6C1 5.44772 1.44772 5 2 5H3.50526C3.50865 4.96837 3.51372 4.93692 3.52044 4.90579ZM6.96711 11.9065C6.77294 13.0939 5.74229 14 4.5 14C3.11929 14 2 12.8807 2 11.5C2 10.1193 3.11929 9 4.5 9C5.48964 9 6.34498 9.57503 6.75011 10.4092C7.15698 10.3038 7.5769 10.25 8 10.25C8.4231 10.25 8.84302 10.3038 9.24989 10.4092C9.65502 9.57503 10.5104 9 11.5 9C12.8807 9 14 10.1193 14 11.5C14 12.8807 12.8807 14 11.5 14C10.2577 14 9.22706 13.0939 9.03289 11.9065C8.69943 11.8031 8.35128 11.75 8 11.75C7.64872 11.75 7.30057 11.8031 6.96711 11.9065Z" fill="#99A2AD"/>
</svg>
