<svg width="25" height="25" fill="none" xmlns="http://www.w3.org/2000/svg"><path d="M22.64 3.013a2.048 2.048 0 0 0-2.078-.324L2.64 9.924a2.043 2.043 0 0 0 .104 3.818l3.625 1.261 2.02 6.682c.028.089.068.174.119.252.008.012.019.02.027.033a.99.99 0 0 0 .281.265c.095.063.2.11.31.136l.013.001.006.003c.067.014.135.02.203.02l.018-.003a.992.992 0 0 0 .302-.052c.022-.008.041-.02.063-.03a.994.994 0 0 0 .205-.114l.152-.129 2.702-2.983 4.03 3.122c.355.276.792.427 1.241.427A2.054 2.054 0 0 0 20.07 21l3.263-16.017a2.03 2.03 0 0 0-.693-1.97ZM9.745 15.32a.994.994 0 0 0-.272.506l-.31 1.504-.784-2.593 4.065-2.117-2.699 2.7Zm8.302 5.304-4.763-3.69a1.001 1.001 0 0 0-1.353.12l-.866.955.306-1.487 7.083-7.083a1 1 0 0 0-1.169-1.593L7.12 13.139l-3.724-1.363 17.978-7.192-3.327 16.041Z" fill="#1A1B22"/></svg>