<svg width="16" height="16" viewBox="0 0 16 16" fill="none" xmlns="http://www.w3.org/2000/svg">
<g clip-path="url(#clip0_51_13073)">
<path fill-rule="evenodd" clip-rule="evenodd" d="M-3.23441e-08 10.2564L-2.29602e-07 5.74364C-8.42563e-06 4.90141 -1.50253e-05 4.22074 0.0450431 3.66926C0.0914715 3.101 0.1897 2.59983 0.426285 2.1355C0.801257 1.39958 1.39958 0.801257 2.1355 0.426286C2.59983 0.1897 3.101 0.0914725 3.66926 0.0450428C4.22075 -1.35359e-05 4.90141 -7.84364e-06 5.74364 7.02612e-07L10.2564 5.05354e-07C11.0986 -8.11453e-06 11.7793 -1.38663e-05 12.3307 0.0450425C12.899 0.0914721 13.4002 0.1897 13.8645 0.426285C14.6004 0.801256 15.1987 1.39958 15.5737 2.1355C15.8103 2.59983 15.9085 3.101 15.955 3.66926C16 4.22074 16 4.90141 16 5.74363L16 10.2564C16 11.0986 16 11.7793 15.955 12.3307C15.9085 12.899 15.8103 13.4002 15.5737 13.8645C15.1987 14.6004 14.6004 15.1987 13.8645 15.5737C13.4002 15.8103 12.899 15.9085 12.3307 15.955C11.7793 16 11.0986 16 10.2564 16L5.74364 16C4.90142 16 4.22075 16 3.66926 15.955C3.101 15.9085 2.59983 15.8103 2.1355 15.5737C1.39958 15.1987 0.801257 14.6004 0.426286 13.8645C0.1897 13.4002 0.091472 12.899 0.0450435 12.3307C-1.46949e-05 11.7793 -8.15474e-06 11.0986 -3.23441e-08 10.2564ZM1.63973 12.2004C1.67807 12.6698 1.74939 12.9369 1.8519 13.1381C2.07347 13.573 2.42703 13.9265 2.86189 14.1481C3.06307 14.2506 3.33024 14.3219 3.79955 14.3603C4.2782 14.3994 4.89338 14.4 5.77778 14.4L10.2222 14.4C11.1066 14.4 11.7218 14.3994 12.2004 14.3603C12.6698 14.3219 12.9369 14.2506 13.1381 14.1481C13.573 13.9265 13.9265 13.573 14.1481 13.1381C14.2506 12.9369 14.3219 12.6698 14.3603 12.2004C14.3994 11.7218 14.4 11.1066 14.4 10.2222L14.4 5.77778C14.4 4.89338 14.3994 4.2782 14.3603 3.79955C14.3219 3.33024 14.2506 3.06306 14.1481 2.86189C13.9265 2.42702 13.573 2.07347 13.1381 1.85189C12.9369 1.74939 12.6698 1.67807 12.2005 1.63973C11.7218 1.60062 11.1066 1.6 10.2222 1.6L5.77778 1.6C4.89338 1.6 4.2782 1.60062 3.79955 1.63973C3.33024 1.67807 3.06307 1.74939 2.86189 1.8519C2.42703 2.07347 2.07347 2.42702 1.8519 2.86189C1.74939 3.06307 1.67807 3.33024 1.63973 3.79955C1.60062 4.2782 1.6 4.89338 1.6 5.77777L1.6 10.2222C1.6 11.1066 1.60062 11.7218 1.63973 12.2004Z" fill="#99A2AD"/>
<path d="M4.67906 6.5472C4.36664 6.85962 4.36664 7.36616 4.67906 7.67858C4.99148 7.99099 5.49801 7.99099 5.81043 7.67858L7.19996 6.28905L7.19996 11.6424C7.19996 12.0842 7.55813 12.4424 7.99996 12.4424C8.44178 12.4424 8.79996 12.0842 8.79996 11.6424L8.79996 6.28905L10.1912 7.68031C10.5036 7.99273 11.0102 7.99273 11.3226 7.68031C11.635 7.36789 11.635 6.86136 11.3226 6.54894L8.56564 3.792C8.41131 3.63767 8.20961 3.55957 8.00734 3.55772C8.00488 3.55769 8.00242 3.55768 7.99996 3.55768C7.99749 3.55768 7.99503 3.55769 7.99257 3.55772C7.88679 3.55867 7.78591 3.58016 7.69373 3.61839C7.60007 3.65714 7.51228 3.71444 7.43597 3.7903" fill="#99A2AD"/>
<path d="M4.67906 6.5472L7.4339 3.79237L4.67906 6.5472Z" fill="#99A2AD"/>
</g>
<defs>
<clipPath id="clip0_51_13073">
<rect width="16" height="16" fill="white" transform="translate(0 16) rotate(-90)"/>
</clipPath>
</defs>
</svg>
